{"title":"RedTails.CAM  READNFO XViD -  INSPiRAL","uid":7005618,"size":871128095,"categoryP":"video","categoryS":"movies","magnet":"?xt=urn:btih:ceb37d0b0240f8066ee3e15ee23871e9a1810bc9&amp;dn=RedTails.CAM++READNFO+XViD+-++INSPiRAL&amp;tr=udp%3A%2F%2Ftracker.openbittorrent.com%3A80&amp;tr=udp%3A%2F%2Fopen.demonii.com%3A1337&amp;tr=udp%3A%2F%2Ftracker.coppersurfer.tk%3A6969&amp;tr=udp%3A%2F%2Fexodus.desync.com%3A6969","seeders":0,"leechers":1,"uploader":"LegendET","files":3,"time":1328255277,"description":"\n[center]\n\n[img]http://img443.imageshack.us/img443/3255/kkjxmkfr.jpg[/img]\n\nName - RED TAiLS.CAM  READNFO XViD - INSPiRAL.avi\n\nIMDB - http://www.imdb.com/title/tt0485985/\n\nSOURCES:\n\nVIDEO - Hos DVDR iso\nAUDIO - Hos DVDR iso\nSUBS  - None Add\n\n\nComplete name                            : RED TAiLS.CAM  READNFO XViD - INSPiRAL.avi\nFormat                                   : AVI\nFormat/Info                              : Audio Video Interleave\nFile size                                : 831 MiB\nDuration                                 : 1h 57mn\nOverall bit rate                         : 986 Kbps\nWriting library                          : VirtualDub build 32842/release\n\nVideo\nID                                       : 0\nFormat                                   : MPEG-4 Visual\nFormat profile                           : Advanced Simple@L5\nFormat settings, BVOP                    : 2\nFormat settings, QPel                    : No\nFormat settings, GMC                     : No warppoints\nFormat settings, Matrix                  : Default (H.263)\nMuxing mode                              : Packed bitstream\nCodec ID                                 : XVID\nCodec ID/Hint                            : XviD\nDuration                                 : 1h 57mn\nBit rate                                 : 848 Kbps\nWidth                                    : 720 pixels\nHeight                                   : 400 pixels\nDisplay aspect ratio                     : 16:9\nFrame rate                               : 25.000 fps\nColor space                              : YUV\nChroma subsampling                       : 4:2:0\nBit depth                                : 8 bits\nScan type                                : Progressive\nCompression mode                         : Lossy\nBits/(Pixel*Frame)                       : 0.118\nStream size                              : 715 MiB (86%)\nWriting library                          : XviD 64\n\nAudio\nID                                       : 1\nFormat                                   : MPEG Audio\nFormat version                           : Version 1\nFormat profile                           : Layer 3\nCodec ID                                 : 55\nCodec ID/Hint                            : MP3\nDuration                                 : 1h 57mn\nBit rate mode                            : Constant\nBit rate                                 : 128 Kbps\nChannel(s)                               : 2 channels\nSampling rate                            : 48.0 KHz\nCompression mode                         : Lossy\nStream size                              : 108 MiB (13%)\nAlignment                                : Split accross interleaves\nInterleave, duration                     : 40 ms (1.00 video frame)\nInterleave, preload duration             : 500 ms\n\nNotes - \n\nThanks to an old friend for the silver  There was quite a bit to do on this as there was a large amount of movement, cropped, resized, filtered\nto make it smoother, but still a cam, nice find, take it or leave it as always.\nNote to site staff: Stop editing our nfos :p  your nfo Gods, your site staff :p We are only trying to point out to a few select encoders they need to stop with\nsilly links,blogs,emails.\n\nBe safe - \n\nScreens - \n\n\n[img]http://www.aedes.us/d/rgxu.png[/img]\n","torrent":{"xt":"urn:btih:ceb37d0b0240f8066ee3e15ee23871e9a1810bc9","amp;dn":"RedTails.CAM++READNFO+XViD+-++INSPiRAL","amp;tr":["udp%3A%2F%2Ftracker.openbittorrent.com%3A80","udp%3A%2F%2Fopen.demonii.com%3A1337","udp%3A%2F%2Ftracker.coppersurfer.tk%3A6969","udp%3A%2F%2Fexodus.desync.com%3A6969"],"infoHash":"ceb37d0b0240f8066ee3e15ee23871e9a1810bc9","infoHashBuffer":{"type":"Buffer","data":[206,179,125,11,2,64,248,6,110,227,225,94,226,56,113,233,161,129,11,201]},"announce":[],"urlList":[]}}